<?xml version="1.0" encoding="UTF-8"?>
<svg width="48px" height="48px" viewBox="0 0 48 48" version="1.1" xmlns="http://www.w3.org/2000/svg" xmlns:xlink="http://www.w3.org/1999/xlink">
    <!-- Generator: Sketch 53.2 (72643) - https://sketchapp.com -->
    <title>change</title>
    <desc>Created with Sketch.</desc>
    <g id="Page-1" stroke="none" stroke-width="1" fill="none" fill-rule="evenodd">
        <g id="RefitHouse_Homepage" transform="translate(-643.000000, -1273.000000)" fill="#000000" fill-rule="nonzero">
            <g id="Group-12" transform="translate(562.000000, 1255.000000)">
                <g id="change" transform="translate(81.000000, 18.000000)">
                    <path d="M11.627,23.2695 C11.8721,22.747 11.9995,22.1771 12,21.6 C12,19.3909 10.2091,17.6 8,17.6 C5.7909,17.6 4,19.3909 4,21.6 C4.0006,22.1771 4.1279,22.7471 4.373,23.2695 C1.8519,23.6911 0.0035,25.8712 3.5643068e-16,28.4274 L3.5643068e-16,36 C-0.0001,36.4417 0.3579,36.7999 0.7996,36.8 C0.7997,36.8 0.7999,36.8 0.8,36.8 L3.2,36.8 L3.2,47.2 C3.1999,47.6417 3.5579,47.9999 3.9996,48 C3.9997,48 3.9999,48 4,48 L12,48 C12.4417,48.0001 12.7999,47.6421 12.8,47.2004 C12.8,47.2003 12.8,47.2001 12.8,47.2 L12.8,36.8 L15.2,36.8 C15.6417,36.8001 15.9999,36.4421 16,36.0004 C16,36.0003 16,36.0001 16,36 L16,28.4273 C15.9965,25.8712 14.1481,23.6911 11.627,23.2695 Z M14.4,35.2 L12.8,35.2 L12.8,27.2 L11.2,27.2 L11.2,46.4 L8.8,46.4 L8.8,35.2 L7.2,35.2 L7.2,46.4 L4.8,46.4 L4.8,27.2 L3.2,27.2 L3.2,35.2 L1.6,35.2 L1.6,28.4273 C1.6023,26.4249 3.225,24.8023 5.2273,24.8 L5.9035,24.8 C6.3454,24.7999 6.7035,24.4416 6.7034,23.9997 C6.7034,23.769 6.6037,23.5495 6.43,23.3976 C5.9036,22.9488 5.6003,22.2918 5.6,21.6 C5.6,20.2745 6.6745,19.2 8,19.2 C9.3255,19.2 10.4,20.2745 10.4,21.6 C10.3997,22.2918 10.0964,22.9488 9.5699,23.3977 C9.2373,23.6886 9.2035,24.1941 9.4944,24.5267 C9.6463,24.7004 9.8658,24.8 10.0965,24.8001 L10.7727,24.8001 C12.7751,24.8024 14.3977,26.4251 14.4,28.4274 L14.4,35.2 Z" id="Shape"></path>
                    <path d="M40,3.2 C38.6751,3.1986 37.6014,2.1249 37.6,0.8 C37.6,0.3582 37.2418,0 36.8,0 C36.3582,0 36,0.3582 36,0.8 C35.9986,2.1249 34.9249,3.1986 33.6,3.2 C33.1582,3.2 32.8,3.5582 32.8,4 C32.8,4.4418 33.1582,4.8 33.6,4.8 C34.9249,4.8014 35.9986,5.8751 36,7.2 C36,7.6418 36.3582,8 36.8,8 C37.2418,8 37.6,7.6418 37.6,7.2 C37.6014,5.8751 38.6751,4.8014 40,4.8 C40.4418,4.8 40.8,4.4418 40.8,4 C40.8,3.5582 40.4418,3.2 40,3.2 Z M36.8,4.8024 C36.5717,4.4985 36.3016,4.2284 35.9977,4.0001 C36.3016,3.7718 36.5717,3.5017 36.8,3.1978 C37.0283,3.5017 37.2984,3.7718 37.6023,4.0001 C37.2984,4.2283 37.0283,4.4985 36.8,4.8024 Z" id="Shape"></path>
                    <path d="M47.2004,42.4 C47.2003,42.4 47.2001,42.4 47.2,42.4 L44,42.4 L44,40 C44.0001,39.5583 43.6421,39.2001 43.2004,39.2 C43.2003,39.2 43.2001,39.2 43.2,39.2 L41.6,39.2 L41.6,20.2125 L47.8945,9.1969 C48.1031,8.8319 47.9936,8.3676 47.6437,8.1344 L45.2437,6.5344 C45.0597,6.4133 44.8344,6.3722 44.6195,6.4203 C44.4047,6.4701 44.22,6.6063 44.109,6.7969 L40.5246,12.9414 C39.7191,10.8844 37.3985,9.8698 35.3415,10.6753 C34.3033,11.0818 33.482,11.9032 33.0754,12.9414 L29.491,6.7969 C29.2689,6.4154 28.7795,6.2862 28.398,6.5083 C28.3838,6.5166 28.3699,6.5253 28.3562,6.5344 L25.9562,8.1344 C25.6064,8.3676 25.4968,8.8319 25.7054,9.1969 L32,20.2125 L32,39.2 L30.4,39.2 C29.9583,39.1999 29.6001,39.5579 29.6,39.9996 C29.6,39.9997 29.6,39.9999 29.6,40 L29.6,42.4 L26.4,42.4 C25.9583,42.3999 25.6001,42.7579 25.6,43.1996 C25.6,43.1997 25.6,43.1999 25.6,43.2 L25.5999101,48 L27.2,48 L27.2,44 L30.4,44 C30.8417,44.0001 31.1999,43.6421 31.2,43.2004 C31.2,43.2003 31.2,43.2001 31.2,43.2 L31.2,40.8 L42.4,40.8 L42.4,43.2 C42.3999,43.6417 42.7579,43.9999 43.1996,44 C43.1997,44 43.1999,44 43.2,44 L46.4,44 L46.4,48 L48.000013,48 L48,43.2 C48.0001,42.7583 47.6421,42.4001 47.2004,42.4 Z M40,20 L40,39.2 L37.6,39.2 L37.6,29.6 L36,29.6 L36,39.2 L33.6,39.2 L33.6,20 C33.6,19.8608 33.5636,19.724 33.4945,19.6031 L27.4652,9.0516 L28.5371,8.3368 L33.709,17.2032 C33.8523,17.449 34.1155,17.6002 34.4,17.6001 L34.7035,17.6001 C35.1454,17.6 35.5035,17.2417 35.5034,16.7998 C35.5034,16.5691 35.4037,16.3496 35.23,16.1977 C34.7035,15.7488 34.4002,15.0919 34.3999,14.4 C34.3999,13.0745 35.4744,12 36.7999,12 C38.1254,12 39.1999,13.0745 39.1999,14.4 C39.1996,15.0918 38.8963,15.7488 38.3698,16.1977 C38.0372,16.4886 38.0034,16.9941 38.2943,17.3267 C38.4462,17.5004 38.6657,17.6 38.8964,17.6001 L39.2,17.6001 C39.4846,17.6002 39.7477,17.4491 39.891,17.2032 L45.0629,8.3368 L46.1348,9.0516 L40.1055,19.6032 C40.0364,19.724 40,19.8608 40,20 Z" id="Shape"></path>
                    <rect id="Rectangle" x="22.4" y="18.4" width="1.6" height="1.6"></rect>
                    <rect id="Rectangle" x="25.6" y="20" width="1.6" height="1.6"></rect>
                    <rect id="Rectangle" x="28.8" y="21.6" width="1.6" height="1.6"></rect>
                    <rect id="Rectangle" x="22.4" y="24" width="1.6" height="1.6"></rect>
                    <rect id="Rectangle" x="25.6" y="25.6" width="1.6" height="1.6"></rect>
                    <rect id="Rectangle" x="28.8" y="27.2" width="1.6" height="1.6"></rect>
                    <rect id="Rectangle" x="43.2" y="26.4" width="1.6" height="1.6"></rect>
                    <rect id="Rectangle" x="46.4" y="28" width="1.6" height="1.6"></rect>
                    <rect id="Rectangle" x="43.2" y="32" width="1.6" height="1.6"></rect>
                    <rect id="Rectangle" x="46.4" y="33.6" width="1.6" height="1.6"></rect>
                    <path d="M22.9109,7.3844 L18.089,3.3844 C17.749,3.1022 17.2447,3.149 16.9625,3.489 C16.8417,3.6345 16.7764,3.818 16.7781,4.0071 L16.7926,5.6 L6.4,5.6 C5.9583,5.5999 5.6001,5.9579 5.6,6.3996 C5.6,6.3997 5.6,6.3999 5.6,6.4 L5.6,14.4 C5.5999,14.8417 5.9579,15.1999 6.3996,15.2 C6.3997,15.2 6.3999,15.2 6.4,15.2 L9.6,15.2 C10.0417,15.2001 10.3999,14.8421 10.4,14.4004 C10.4,14.4003 10.4,14.4001 10.4,14.4 L10.4,10.4 L16.8,10.4 L16.8,12 C16.8002,12.442 17.1587,12.8001 17.6007,12.7999 C17.7876,12.7998 17.9685,12.7343 18.1121,12.6148 L22.9121,8.6148 C23.0948,8.4626 23.2003,8.237 23.2,7.9992 C23.1997,7.7615 23.0938,7.5363 22.9109,7.3844 Z M18.4,10.2922 L18.4,9.6 C18.4001,9.1583 18.0421,8.8001 17.6004,8.8 C17.6003,8.8 17.6001,8.8 17.6,8.8 L9.6,8.8 C9.1583,8.7999 8.8001,9.1579 8.8,9.5996 C8.8,9.5997 8.8,9.5999 8.8,9.6 L8.8,13.6 L7.2,13.6 L7.2,7.2 L17.6,7.2 C18.0416,7.2003 18.3998,6.8425 18.4,6.4009 C18.4,6.3983 18.4,6.3956 18.4,6.393 L18.3937,5.7164 L21.1488,8.0016 L18.4,10.2922 Z" id="Shape"></path>
                </g>
            </g>
        </g>
    </g>
</svg>