<?xml version="1.0" encoding="UTF-8"?>
<svg width="49px" height="49px" viewBox="0 0 49 49" version="1.1" xmlns="http://www.w3.org/2000/svg" xmlns:xlink="http://www.w3.org/1999/xlink">
    <!-- Generator: Sketch 53.2 (72643) - https://sketchapp.com -->
    <title>tag (1)</title>
    <desc>Created with Sketch.</desc>
    <g id="Page-1" stroke="none" stroke-width="1" fill="none" fill-rule="evenodd">
        <g id="RefitHouse_Homepage" transform="translate(-1230.000000, -1273.000000)" fill="#000000" fill-rule="nonzero">
            <g id="Group-14" transform="translate(1149.000000, 1255.000000)">
                <g id="tag-(1)" transform="translate(81.000000, 18.000000)">
                    <path d="M16.9829206,19.7644676 C17.3564054,19.3909829 17.3564054,18.786169 16.9829206,18.4138036 C16.6105553,18.0403189 16.0057413,18.0403189 15.6322566,18.4138036 C15.2587719,18.786169 15.2587719,19.3909829 15.6322566,19.7644676 C16.0057413,20.1368329 16.6105553,20.1368329 16.9829206,19.7644676 Z" id="Path"></path>
                    <path d="M26.439061,21.1151316 C27.5561571,19.9980355 27.5561571,18.1802358 26.439061,17.0631396 C25.3193531,15.9434317 23.5060307,15.9430586 22.3863228,17.0631396 C21.2662418,18.1828475 21.2662418,19.9950506 22.3863228,21.1151316 C23.5034189,22.2322277 25.3215917,22.2326008 26.439061,21.1151316 Z M23.7369868,18.4138036 C24.1104715,18.040692 24.7149123,18.040692 25.088397,18.4138036 C25.4603893,18.786169 25.4603893,19.3917291 25.088397,19.7640945 C24.7156585,20.1364598 24.1093521,20.1368329 23.7369868,19.7640945 C23.3642483,19.3917291 23.3627558,18.7880346 23.7369868,18.4138036 Z" id="Shape"></path>
                    <path d="M22.3863228,27.8684515 C21.2662418,28.9885326 21.2662418,30.8014818 22.3863228,31.9215628 C23.5060307,33.0412707 25.31898,33.0416438 26.439061,31.9215628 C27.5565302,30.8040936 27.5565302,28.9859208 26.439061,27.8684515 C25.3193531,26.7491167 23.5060307,26.7487436 22.3863228,27.8684515 L22.3863228,27.8684515 Z M25.088397,30.5708988 C24.7149123,30.9440104 24.1100984,30.9440104 23.7369868,30.5708988 C23.3642483,30.1981603 23.3627558,29.5937195 23.7369868,29.2194886 C24.1104715,28.8460039 24.7149123,28.846377 25.088397,29.2194886 C25.4607624,29.591854 25.4607624,30.1981603 25.088397,30.5708988 Z" id="Shape"></path>
                    <path d="M16.7217425,26.0301306 C16.8250945,26.5480095 17.3287951,26.8826906 17.8455546,26.7793387 L31.3533138,24.0772646 C31.8704465,23.9739127 32.2058738,23.4705851 32.1025219,22.9534524 C31.99917,22.4359466 31.4958425,22.1008924 30.9787098,22.2042444 L17.4709506,24.9063185 C16.9534449,25.0096705 16.6180175,25.512998 16.7217425,26.0301306 Z" id="Path"></path>
                    <path d="M29.0377832,5.4037753 C28.7844405,5.4037753 28.5415448,5.5041423 28.3624513,5.68323587 L18.3343309,15.7113563 C17.9612193,16.0844679 17.9612193,16.6892818 18.3343309,17.0623933 C18.7074425,17.4355049 19.3122563,17.4355049 19.6849948,17.0623933 L29.0377832,7.70960498 L41.1945054,19.8667002 L19.7510356,41.31017 L7.59394034,29.1534479 L14.2819658,22.4654225 C14.6550774,22.092684 14.6550774,21.4878701 14.2819658,21.1147585 C13.9088542,20.74202 13.3040402,20.74202 12.9309286,21.1147585 L5.56794441,28.4781159 C5.19483281,28.8508543 5.19483281,29.4556682 5.56794441,29.8287798 L19.0757036,43.336539 C19.4488152,43.7096506 20.0532559,43.7096506 20.4263675,43.336539 L43.2208745,20.5420322 C43.5939861,20.1689206 43.5939861,19.5641067 43.2208745,19.1909951 L29.7131153,5.68323587 C29.5340217,5.5041423 29.291126,5.4037753 29.0377832,5.4037753 Z" id="Path"></path>
                    <path d="M47.2736126,0.280206834 L43.1738624,4.37958389 C40.781844,2.57335067 37.4786869,2.54387483 35.1068165,4.30496158 L31.7488121,0.849575086 C31.7454542,0.846217105 31.7424693,0.843232212 31.7391112,0.839874232 C30.625,-0.274237049 28.8131701,-0.28617662 27.6856268,0.841366678 L0.839874232,27.8027839 C-0.279833747,28.9224918 -0.280206834,30.7358141 0.839874232,31.8558952 L4.62844935,35.6440972 C3.78223225,38.0659646 4.39264282,40.8116929 6.24290327,42.6612071 C8.09279052,44.5118406 10.8385188,45.1218781 13.2603862,44.2764072 L17.0489614,48.0646092 C18.1686693,49.1843172 19.9827379,49.183944 21.1002071,48.0661016 L48.0646092,21.2173641 C49.1846903,20.0972831 49.1846903,18.2850801 48.0646092,17.1653722 C48.0612512,17.1620142 48.0582663,17.1590293 48.0549083,17.1556713 L44.5998949,13.7984132 C46.3546388,11.4425865 46.3479228,8.1379371 44.5248995,5.73062106 L48.6242766,1.63124391 C48.9973882,1.25813231 48.9973882,0.653318433 48.6242766,0.280206834 C48.251165,-0.0929047641 47.6467242,-0.0929047641 47.2736126,0.280206834 Z M42.614195,13.1812865 C42.433609,13.3622457 42.3328689,13.6077531 42.3343613,13.8637076 C42.3362269,14.1192891 42.4406981,14.3636772 42.6238959,14.5416515 L46.7176764,18.5201404 C47.0881762,18.8947444 47.0840719,19.4962003 46.7150646,19.8648346 L19.7510356,46.7135721 C19.3782971,47.0863106 18.7719907,47.0863106 18.3996253,46.7135721 L14.1633163,42.4776362 C13.9804916,42.2944384 13.7357304,42.1978024 13.4879843,42.1978024 C13.3506793,42.1978024 13.2122548,42.2272783 13.082412,42.2880955 C11.2455836,43.1499832 9.03974781,42.7570967 7.59394034,41.31017 C6.14701361,39.8643625 5.75412712,37.6588999 6.61601486,35.8220714 C6.78690002,35.4575414 6.71153143,35.0254781 6.42684726,34.7407941 L2.19091131,30.5048581 C1.8181728,30.1321196 1.8181728,29.5261864 2.19203066,29.1519554 L29.0381564,2.19053822 C29.4097755,1.81929215 30.0104852,1.81705353 30.384343,2.18643397 L34.3624589,6.28021442 C34.7191535,6.64735624 35.3299372,6.68317495 35.7231969,6.29028846 C37.358172,4.65456721 39.9184637,4.47995099 41.8045428,5.74890351 L40.4035088,7.14993758 C39.3382751,6.64250581 38.0226837,6.82868852 37.1421403,7.70923189 C36.0250441,8.82670106 36.0250441,10.6448739 37.1421403,11.76197 C38.2618482,12.8816779 40.0751706,12.8820511 41.1952515,11.76197 C42.095943,10.8612787 42.2537692,9.54009044 41.7556652,8.49948221 L43.1563261,7.09882122 C44.4155778,8.96288687 44.2704374,11.5254172 42.614195,13.1812865 Z M39.8442145,9.05989579 C40.216953,9.4326343 40.2184454,10.0370751 39.8442145,10.411306 C39.4711029,10.7844176 38.866289,10.7844176 38.4931774,10.411306 C38.1204389,10.0385675 38.1204389,9.43226121 38.4928043,9.05989579 C38.8655428,8.68790355 39.4718491,8.68715737 39.8442145,9.05989579 L39.8442145,9.05989579 Z" id="Shape"></path>
                </g>
            </g>
        </g>
    </g>
</svg>