<svg xmlns="http://www.w3.org/2000/svg" width="102" height="102" viewBox="0 0 102 102">
    <g fill="none" fill-rule="nonzero">
        <path stroke="#FFF" d="M1 1h100v100H1z"/>
        <path fill="#FFF" d="M56.936 54.655c-1.332-1.997-2.812-3.716-4.377-4.535a14.31 14.31 0 0 0 7.976-5.78 16.326 16.326 0 0 0 2.888-9.378c0-4.911-1.531-8.513-4.594-10.805-3.063-2.293-8.195-3.439-15.396-3.439-1.373 0-3.284.096-5.734.288-2.352.193-4.214.289-5.587.289h-9.615v3.54l5.733.94v44.257l-6.103.72v3.54h15.562v-4.034l-1.586-.226V51.335c.403.02.48.036 1.596.046v-3.87c-1.066 0-1.14-.033-1.596-.063v-8.821l-3.258-.587v-4.882h3.258v-8.104c.293 0 .93-.048 1.91-.144a38.72 38.72 0 0 1 4.704-.288c4.506 0 7.68.926 9.518 2.78 1.84 1.853 2.758 4.538 2.756 8.055 0 3.997-.907 7.007-2.719 9.031-1.42 1.585-2.899 2.868-5.13 3.209v3.687c1.209.917 1.385 1.82 2.228 3.275M56.766 71.767c.95 1.684 1.807 2.526 2.568 2.526h8.554v-3.588s-1.093-.265-2.064-.597c-.689-.236-.886-.996-1.672-2.257-.787-1.26-1.916-3.268-3.39-6.003-.095-.176-.386-.776-.477-.949h-8.023"/>
        <path fill="#B89876" d="M39.374 38.209l-4.84-.796v-3.301h17.132v3.301l-5.298.796v17.828H69.38V38.209l-4.97-.796v-3.301h16.872v3.301l-4.84.796v39.988l4.84.66v3.249H64.358v-3.25l5.035-.66V60.155H46.368v18.033l5.363.66v3.249H34.404v-3.25l4.97-.66z"/>
    </g>
</svg>
