<svg xmlns="http://www.w3.org/2000/svg" width="62" height="62" viewBox="0 0 62 62">
    <g fill="none" fill-rule="nonzero">
        <path stroke="#000" d="M1 1h60v60H1z"/>
        <path fill="#000" d="M34.562 33.193c-.8-1.198-1.687-2.23-2.627-2.72a8.586 8.586 0 0 0 4.786-3.469 9.795 9.795 0 0 0 1.733-5.627c0-2.947-.919-5.108-2.757-6.483S30.78 12.83 26.46 12.83c-.824 0-1.97.058-3.44.173-1.412.115-2.53.173-3.353.173h-5.77V15.3l3.441.563V42.42l-3.662.433v2.124h9.337v-2.421l-.951-.136V31.201c.242.012.288.022.957.027v-2.322c-.64 0-.683-.02-.957-.037v-5.293l-1.955-.352v-2.93h1.955v-4.862c.176 0 .558-.029 1.145-.086a23.232 23.232 0 0 1 2.823-.173c2.704 0 4.608.556 5.711 1.668 1.104 1.112 1.655 2.723 1.653 4.833 0 2.398-.543 4.205-1.63 5.419-.852.95-1.74 1.72-3.08 1.925v2.212c.726.55.832 1.093 1.338 1.965M34.46 43.46c.57 1.01 1.084 1.516 1.54 1.516h5.133v-2.153s-.656-.16-1.239-.358c-.413-.142-.531-.598-1.003-1.354-.472-.757-1.15-1.961-2.034-3.602-.057-.106-.231-.466-.286-.57h-4.814"/>
        <path fill="#B89876" d="M24.024 23.325l-2.903-.477v-1.98H31.4v1.98l-3.18.477v10.697h13.808V23.325l-2.982-.477v-1.98H49.17v1.98l-2.904.477v23.993l2.904.396v1.95H39.015v-1.95l3.02-.396V36.492H28.222v10.82l3.218.396v1.95H21.043v-1.95l2.981-.396z"/>
    </g>
</svg>
