<?xml version="1.0" encoding="UTF-8"?>
<svg width="48px" height="48px" viewBox="0 0 48 48" version="1.1" xmlns="http://www.w3.org/2000/svg" xmlns:xlink="http://www.w3.org/1999/xlink">
    <!-- Generator: Sketch 53.2 (72643) - https://sketchapp.com -->
    <title>analytics</title>
    <desc>Created with Sketch.</desc>
    <g id="Page-1" stroke="none" stroke-width="1" fill="none" fill-rule="evenodd">
        <g id="RefitHouse_Homepage" transform="translate(-936.000000, -1273.000000)" fill="#000000" fill-rule="nonzero">
            <g id="Group-12-Copy" transform="translate(855.000000, 1255.000000)">
                <g id="analytics" transform="translate(81.000000, 18.000000)">
                    <path d="M43.9751111,0.000748538012 C43.8042573,0.000748538012 43.311345,0.000748538012 43.2265731,0.000748538012 L14.9689825,0.000748538012 C14.4522105,0.000748538012 14.0333099,0.41974269 14.0333099,0.936421053 C14.0333099,1.45309942 14.4522105,1.87209357 14.9689825,1.87209357 L40.6295205,1.87209357 C40.2595556,2.47120468 40.0454737,3.17614035 40.0454737,3.93047953 L40.0454737,16.1861053 C40.0454737,16.7027836 40.4643743,17.1217778 40.9811462,17.1217778 C41.4979181,17.1217778 41.9168187,16.7027836 41.9168187,16.1861053 L41.9168187,13.286924 L46.9692632,13.286924 C47.4860351,13.286924 47.9049357,12.8679298 47.9049357,12.3512515 L47.9049357,3.93047953 C47.9048421,1.76364912 46.1420351,0.000748538012 43.9751111,0.000748538012 Z M46.0335906,11.4155789 L41.9167251,11.4155789 L41.9167251,3.93047953 C41.9167251,2.7954152 42.8401404,1.87209357 43.9751111,1.87209357 C45.1100819,1.87209357 46.0334971,2.79550877 46.0334971,3.93047953 L46.0334971,11.4155789 L46.0335906,11.4155789 Z" id="Shape"></path>
                    <path d="M46.8839298,38.1309006 L40.772117,32.0190877 C41.4774269,30.5805848 41.874152,28.9645848 41.874152,27.2574503 C41.874152,21.2727953 37.0052865,16.4040234 31.0207251,16.4040234 C25.0361637,16.4040234 20.1672982,21.2727953 20.1672982,27.2574503 C20.1672982,28.6256842 20.4224561,29.935345 20.8866433,31.1421754 L19.7914386,32.2373801 L15.2868304,27.7326784 C15.1113918,27.5572398 14.8733567,27.4586199 14.6252164,27.4586199 C14.377076,27.4586199 14.1390409,27.5572398 13.9636023,27.7326784 L12.9105029,28.7857778 L12.9105029,20.2419649 C12.9105029,19.7252865 12.4916023,19.3062924 11.9748304,19.3062924 C11.4580585,19.3062924 11.0391579,19.7252865 11.0391579,20.2419649 L11.0391579,30.6571228 L2.57927485,39.1170994 C2.21389474,39.4824795 2.21389474,40.0749474 2.57927485,40.4404211 C2.7620117,40.6230643 3.00145029,40.7144795 3.24088889,40.7144795 C3.48032749,40.7144795 3.71985965,40.6230643 3.90250292,40.4404211 L11.0391579,33.3037661 L11.0391579,40.0465965 L6.92294737,40.0465965 C6.40617544,40.0465965 5.98727485,40.4655906 5.98727485,40.982269 L5.98727485,43.9763275 C5.98727485,46.1431579 7.75008187,47.9060585 9.91700585,47.9060585 L37.9869942,47.9060585 C40.1539181,47.9060585 41.9168187,46.1431579 41.9168187,43.9761404 L41.9168187,43.1728655 C42.5714152,43.8082807 43.4342924,44.1576608 44.3558363,44.1576608 C44.3616374,44.1576608 44.3675322,44.1575673 44.3734269,44.1575673 C45.3158363,44.1529825 46.201076,43.7841404 46.8663392,43.1188772 C48.246269,41.7386667 48.2542222,39.501193 46.8839298,38.1309006 Z M31.0206316,18.2752749 C35.9734269,18.2752749 40.002807,22.304655 40.002807,27.2574503 C40.002807,32.2102456 35.9734269,36.2396257 31.0206316,36.2396257 C27.6196491,36.2396257 24.6542222,34.3396491 23.1298246,31.5454503 L28.537076,26.1381988 L28.537076,28.2609591 C28.537076,28.7776374 28.9559766,29.1966316 29.4727485,29.1966316 C29.9895205,29.1966316 30.4084211,28.7776374 30.4084211,28.2609591 L30.4084211,23.7704795 C30.4084211,23.2538012 29.9895205,22.834807 29.4727485,22.834807 L24.9821754,22.834807 C24.4654035,22.834807 24.0465029,23.2538012 24.0465029,23.7704795 C24.0465029,24.2871579 24.4654035,24.706152 24.9821754,24.706152 L27.3227602,24.706152 L22.3661287,29.6627836 C22.1529825,28.8969357 22.0385497,28.090386 22.0385497,27.2575439 C22.0384561,22.3045614 26.0678363,18.2752749 31.0206316,18.2752749 Z M9.91691228,46.0344327 C8.78184795,46.0343392 7.85852632,45.110924 7.85852632,43.9759532 L7.85852632,41.9175673 L34.057076,41.9175673 L34.057076,43.0403743 C34.057076,43.0709708 34.0587602,43.101193 34.0616608,43.1310409 C34.0587602,43.1608889 34.057076,43.1911111 34.057076,43.2217076 L34.057076,43.9759532 C34.057076,44.730386 34.2711579,45.4354152 34.6412164,46.0345263 L9.91691228,46.0345263 L9.91691228,46.0344327 Z M40.0454737,43.9756725 C40.0454737,45.110924 39.1219649,46.0343392 37.9869942,46.0343392 C36.8518363,46.0343392 35.9284211,45.1108304 35.9284211,43.9757661 L35.9284211,43.2215205 C35.9284211,43.190924 35.9267368,43.1607018 35.9238363,43.1308538 C35.9267368,43.1010058 35.9284211,43.0707836 35.9284211,43.0401871 L35.9284211,40.9818012 C35.9284211,40.4651228 35.5095205,40.0461287 34.9927485,40.0461287 L12.9105029,40.0461287 L12.9105029,31.4320468 L14.6251228,29.7174269 L19.129731,34.2221287 C19.3051696,34.3975673 19.5432047,34.4961871 19.791345,34.4961871 C20.0394854,34.4961871 20.2775205,34.3975673 20.4529591,34.2221287 L21.7612164,32.9138713 C23.670924,36.028538 27.1070877,38.1107836 31.0206316,38.1107836 C32.7195322,38.1107836 34.3284211,37.7179883 35.7615906,37.0190409 L40.0454737,41.302924 L40.0454737,43.9756725 L40.0454737,43.9756725 Z M45.5431111,41.7952749 C45.2289123,42.1094737 44.8101988,42.2837895 44.3642573,42.285848 C44.3615439,42.2859415 44.3587368,42.2859415 44.3559298,42.2859415 C43.916538,42.2859415 43.5069006,42.1180819 43.2017778,41.8128655 L37.4122105,36.0232982 C38.3147602,35.363462 39.1118596,34.5678596 39.7735673,33.666807 L45.5607018,39.4539415 C46.2013567,40.0946901 46.1934971,41.145076 45.5431111,41.7952749 Z" id="Shape"></path>
                    <path d="M36.944655,26.3218713 C36.427883,26.3218713 36.0089825,26.7408655 36.0089825,27.2575439 C36.0089825,30.0080468 33.7712281,32.2458012 31.0206316,32.2458012 C30.5038596,32.2458012 30.0849591,32.6647018 30.0849591,33.1814737 C30.0849591,33.698152 30.5038596,34.1171462 31.0206316,34.1171462 C34.8030877,34.1171462 37.8803275,31.0399064 37.8803275,27.2575439 C37.8803275,26.7408655 37.4614269,26.3218713 36.944655,26.3218713 Z" id="Path"></path>
                    <path d="M23.9642573,16.093848 L23.110269,16.093848 L23.110269,9.82502924 C23.110269,9.30835088 22.6913684,8.88935673 22.1745965,8.88935673 L17.8778012,8.88935673 C17.3610292,8.88935673 16.9421287,9.30835088 16.9421287,9.82502924 L16.9421287,16.093848 L15.4379415,16.093848 L15.4379415,5.9888655 C15.4379415,5.47218713 15.0190409,5.05319298 14.502269,5.05319298 L10.3854035,5.05319298 C9.86863158,5.05319298 9.44973099,5.47218713 9.44973099,5.9888655 L9.44973099,16.0937544 L7.95293567,16.0937544 L7.95293567,11.9768889 C7.95293567,11.4602105 7.53403509,11.0412164 7.01726316,11.0412164 L2.90049123,11.0412164 C2.3837193,11.0412164 1.96481871,11.4602105 1.96481871,11.9768889 L1.96481871,16.0937544 L0.935672515,16.0937544 C0.418900585,16.0937544 0,16.5127485 0,17.0294269 C0,17.5461053 0.418900585,17.9650994 0.935672515,17.9650994 L23.9643509,17.9650994 C24.4811228,17.9650994 24.9000234,17.5461053 24.9000234,17.0294269 C24.8999298,16.5127485 24.4810292,16.093848 23.9642573,16.093848 Z M6.08168421,16.093848 L3.83616374,16.093848 L3.83616374,12.912655 L6.08168421,12.912655 L6.08168421,16.093848 Z M13.5667836,16.093848 L11.3212632,16.093848 L11.3212632,6.92453801 L13.5667836,6.92453801 L13.5667836,16.093848 Z M21.2390175,16.093848 L18.8135673,16.093848 L18.8135673,10.7607018 L21.2390175,10.7607018 L21.2390175,16.093848 Z" id="Shape"></path>
                    <path d="M31.5743626,5.05319298 L24.3267368,5.05319298 C23.8099649,5.05319298 23.3910643,5.47218713 23.3910643,5.9888655 C23.3910643,6.50554386 23.8099649,6.92453801 24.3267368,6.92453801 L31.5743626,6.92453801 C32.0911345,6.92453801 32.5100351,6.50554386 32.5100351,5.9888655 C32.5099415,5.47218713 32.0911345,5.05319298 31.5743626,5.05319298 Z" id="Path"></path>
                    <path d="M36.8642807,5.32725146 C36.6902456,5.15321637 36.4488421,5.05309942 36.2027602,5.05309942 C35.9566784,5.05309942 35.7152749,5.15312281 35.5412398,5.32725146 C35.3672047,5.50138012 35.2670877,5.74269006 35.2670877,5.98877193 C35.2670877,6.2348538 35.3672047,6.47625731 35.5412398,6.65019883 C35.7152749,6.82423392 35.9566784,6.92444444 36.2027602,6.92444444 C36.4488421,6.92444444 36.6902456,6.82432749 36.8642807,6.65019883 C37.0383158,6.47625731 37.1384327,6.2348538 37.1384327,5.98877193 C37.1384327,5.74278363 37.0383158,5.50138012 36.8642807,5.32725146 Z" id="Path"></path>
                    <path d="M27.9505029,9.17005848 L26.4162807,9.17005848 C25.8995088,9.17005848 25.4806082,9.58905263 25.4806082,10.105731 C25.4806082,10.6224094 25.8995088,11.0414035 26.4162807,11.0414035 L27.9505029,11.0414035 C28.4672749,11.0414035 28.8861754,10.6224094 28.8861754,10.105731 C28.8861754,9.58905263 28.4672749,9.17005848 27.9505029,9.17005848 Z" id="Path"></path>
                    <path d="M36.2025731,9.17005848 L31.5743626,9.17005848 C31.0575906,9.17005848 30.6386901,9.58905263 30.6386901,10.105731 C30.6386901,10.6224094 31.0575906,11.0414035 31.5743626,11.0414035 L36.2025731,11.0414035 C36.719345,11.0414035 37.1382456,10.6224094 37.1382456,10.105731 C37.1382456,9.58905263 36.719345,9.17005848 36.2025731,9.17005848 Z" id="Path"></path>
                    <path d="M1.59803509,41.4216608 C1.424,41.2476257 1.18259649,41.1474152 0.93651462,41.1474152 C0.689497076,41.1474152 0.44902924,41.2475322 0.274994152,41.4216608 C0.100023392,41.5956023 0.000842105263,41.8370058 0.000842105263,42.0830877 C0.000842105263,42.3291696 0.100023392,42.5705731 0.274994152,42.7446082 C0.44902924,42.9186433 0.689497076,43.0187602 0.93651462,43.0187602 C1.18259649,43.0187602 1.42306433,42.9187368 1.59803509,42.7446082 C1.77207018,42.5705731 1.87218713,42.3291696 1.87218713,42.0830877 C1.87218713,41.8369123 1.77207018,41.5955088 1.59803509,41.4216608 Z" id="Path"></path>
                </g>
            </g>
        </g>
    </g>
</svg>