<?xml version="1.0" encoding="UTF-8"?>
<svg width="46px" height="46px" viewBox="0 0 46 46" version="1.1" xmlns="http://www.w3.org/2000/svg" xmlns:xlink="http://www.w3.org/1999/xlink">
    <!-- Generator: Sketch 53.2 (72643) - https://sketchapp.com -->
    <title>package</title>
    <desc>Created with Sketch.</desc>
    <g id="Page-1" stroke="none" stroke-width="1" fill="none" fill-rule="evenodd">
        <g id="RefitHouse_Homepage" transform="translate(-1524.000000, -1274.000000)" fill="#000000" fill-rule="nonzero">
            <g id="Group-15" transform="translate(1442.000000, 1255.000000)">
                <g id="package" transform="translate(82.000000, 19.000000)">
                    <path d="M13.9882144,33.1775673 C13.4932437,33.1775673 13.0915283,33.5792827 13.0915283,34.0742534 C13.0915283,34.5692242 13.4932437,34.9709396 13.9882144,34.9709396 C14.4831852,34.9709396 14.8849006,34.5692242 14.8849006,34.0742534 C14.8849006,33.5792827 14.4831852,33.1775673 13.9882144,33.1775673 Z" id="Path"></path>
                    <path d="M40.3636998,17.0371267 L45.6477817,11.7530448 C45.8700702,11.5307563 45.9596491,11.208308 45.8840585,10.9032554 C45.8084678,10.5981131 45.5785575,10.3549318 45.2781676,10.2622144 L32.4107212,6.29079142 C31.250768,2.5622807 27.8031891,0.000179337232 23.8517622,0.000179337232 C20.178577,0.000179337232 16.8934776,2.23875634 15.5338324,5.61567641 L0.629653021,10.2630214 C0.330070175,10.3564561 0.10105653,10.5998168 0.0260038986,10.9046004 C-0.0490487329,11.2092943 0.040619883,11.5312047 0.262549708,11.7531345 L5.68561793,17.1762027 L2.26529825,22.876885 C2.12532554,23.1101131 2.09887329,23.3942729 2.19320468,23.6493801 C2.28753606,23.9044873 2.49260819,24.102924 2.75067446,24.1889162 L7.71141131,25.8424055 L7.71141131,39.6336179 C7.71141131,40.0073567 7.94329435,40.3419103 8.29327096,40.4731852 C11.3264912,41.6105419 22.5964912,45.8373411 22.6570175,45.8587719 C22.8349201,45.9214503 23.0353294,45.9299688 23.2307173,45.8667524 C23.2333177,45.8658558 23.2360078,45.8653177 23.2386082,45.8644211 L39.3789591,40.4843041 C39.745076,40.3622651 39.9921131,40.0195517 39.9921131,39.6336179 L39.9921131,25.4731501 L45.2823821,23.810694 C45.5815166,23.7167212 45.8098129,23.4733606 45.8845068,23.168846 C45.9591111,22.8643314 45.8693528,22.5429591 45.647692,22.3212086 L40.3636998,17.0371267 Z M32.8186238,8.96704094 C32.8186238,8.73919298 32.8090292,8.51188304 32.7919025,8.28529045 L43.3274269,11.5371228 L38.853232,16.0112281 L31.542729,13.5746628 C32.3705497,12.1909864 32.8186238,10.594347 32.8186238,8.96704094 Z M17.066269,6.6331462 C18.0616803,3.73846394 20.7885926,1.79355166 23.8517622,1.79355166 C27.1516569,1.79355166 30.0136998,4.02558285 30.8116608,7.22137232 C30.9534269,7.78924366 31.0252515,8.3765731 31.0252515,8.96704094 C31.0252515,10.6325458 30.4725341,12.1935867 29.4266394,13.4820351 C28.0567719,15.1715712 26.0247914,16.1405302 23.8517622,16.1405302 C21.5028031,16.1405302 19.2995556,14.9875712 17.957575,13.0555712 C17.1206979,11.8534737 16.6782729,10.4395789 16.6782729,8.96704094 C16.6782729,8.16621053 16.8087407,7.38098246 17.066269,6.6331462 Z M2.57922807,11.5336257 L14.9803977,7.66675634 C14.9181676,8.09519298 14.8849006,8.52918908 14.8849006,8.96695127 C14.8849006,10.4107057 15.2268967,11.8090877 15.8787875,13.0708148 L7.05692008,16.0112281 L2.57922807,11.5336257 Z M4.37824951,22.8410175 L7.21357115,18.1153021 L21.6110331,22.9144561 L18.7758012,27.6401715 C17.2384327,27.1277154 6.0197232,23.3880858 4.37824951,22.8410175 Z M22.0583899,43.7199064 L9.50478363,39.0123041 L9.50478363,26.4402261 C19.3817817,29.7151033 18.8994542,29.6151228 19.1744678,29.6151228 C19.4827485,29.6151228 19.7779376,29.4556023 19.9435556,29.179692 L22.0583899,25.654729 L22.0583899,43.7199064 Z M22.955076,21.4721365 L9.65040546,17.037306 L16.8950916,14.6225302 C18.5907251,16.7070565 21.1433216,17.9339025 23.8517622,17.9339025 C26.3572827,17.9339025 28.7120702,16.9028031 30.4058207,15.086117 L36.2597466,17.0372164 L22.955076,21.4721365 Z M38.1987407,38.9873762 L23.8517622,43.7696725 L23.8517622,24.9733372 L27.0306043,28.9465536 C27.2618596,29.2355556 27.646807,29.3526628 27.999653,29.2418324 L38.1987407,26.036807 L38.1987407,38.9873762 L38.1987407,38.9873762 Z M28.0475361,27.3470448 L24.4586394,22.8612827 L38.853232,18.063115 L43.3334347,22.5433177 L28.0475361,27.3470448 Z" id="Shape"></path>
                    <path d="M19.6832476,35.1678519 L17.6890175,34.4200156 C17.2253411,34.2462378 16.7084912,34.4810799 16.5345341,34.9447563 C16.3606667,35.4085224 16.5955984,35.9253723 17.0592749,36.0992398 L19.0535049,36.847076 C19.5181676,37.0212125 20.0343899,36.7852047 20.2079883,36.3223353 C20.3818558,35.8586589 20.146924,35.3417193 19.6832476,35.1678519 Z" id="Path"></path>
                    <path d="M19.6831579,38.9984951 L14.3030409,36.9809513 C13.8393645,36.8070838 13.3225146,37.0420156 13.1485575,37.505692 C12.9746004,37.9693684 13.2096218,38.486308 13.6732982,38.6601754 L19.0534152,40.6777193 C19.1571618,40.7166355 19.2635088,40.7351072 19.368152,40.7351072 C19.7312203,40.7351072 20.0728577,40.5129981 20.2078986,40.1529786 C20.3818558,39.6892125 20.146924,39.1723626 19.6831579,38.9984951 Z" id="Path"></path>
                    <path d="M28.9693294,5.642846 C28.6191735,5.29260039 28.0513918,5.29269006 27.7011462,5.642846 L22.955076,10.3890058 L21.7957505,9.22968031 C21.4455945,8.87952437 20.8778129,8.87952437 20.5275673,9.22968031 C20.1773216,9.57983626 20.1774113,10.1476179 20.5275673,10.4978635 L22.3210292,12.2911462 C22.6711852,12.6413021 23.2389669,12.6413021 23.5892125,12.2911462 L28.9693294,6.91102924 C29.3194854,6.56087329 29.3194854,5.99309162 28.9693294,5.642846 Z" id="Path"></path>
                </g>
            </g>
        </g>
    </g>
</svg>