<?xml version="1.0" encoding="UTF-8"?>
<svg width="48px" height="53px" viewBox="0 0 48 53" version="1.1" xmlns="http://www.w3.org/2000/svg" xmlns:xlink="http://www.w3.org/1999/xlink">
    <!-- Generator: Sketch 53.2 (72643) - https://sketchapp.com -->
    <title>warranty</title>
    <desc>Created with Sketch.</desc>
    <g id="Page-1" stroke="none" stroke-width="1" fill="none" fill-rule="evenodd">
        <g id="RefitHouse_Homepage" transform="translate(-350.000000, -1271.000000)" fill="#000000" fill-rule="nonzero">
            <g id="Group-13" transform="translate(269.000000, 1255.000000)">
                <g id="warranty" transform="translate(81.000000, 16.000000)">
                    <path d="M47.1181803,8.68686695 L47.0480343,8.67460944 C39.0409957,7.27066094 31.4677082,4.40322747 24.5386094,0.152137339 C24.2074506,-0.0509871245 23.7900773,-0.0506781116 23.4593305,0.153270386 C16.5785408,4.39539914 9.0527382,7.25407725 1.09091845,8.65019742 L0.88151073,8.68686695 C0.388738197,8.77328755 0.0293562232,9.20116738 0.0293562232,9.70145923 L0.0293562232,23.184309 C0.0293562232,30.0516052 2.39958798,36.7806695 6.70351931,42.1320515 C11.0073476,47.4833305 17.0715193,51.2415451 23.7789528,52.7143004 C23.8518798,52.7301631 23.9258369,52.7381974 24,52.7381974 C24.0742661,52.7381974 24.1485322,52.7301631 24.2214592,52.7141974 C30.9295107,51.2380429 36.9938884,47.4768412 41.2972017,42.1235021 C45.600618,36.7701631 47.9706438,30.0392446 47.9706438,23.1706094 L47.9706438,9.70145923 C47.9706438,9.20096137 47.6110558,8.77308155 47.1181803,8.68686695 Z M45.9106609,23.1706094 C45.9106609,36.2260944 36.7101116,47.7471245 23.999794,50.6525665 C11.2897854,47.7533047 2.08944206,36.2382489 2.08944206,23.184309 L2.08944206,10.5632961 C9.86451502,9.12123605 17.2306609,6.32178541 24.0014421,2.23570815 C30.7783004,6.30664378 38.1419742,9.10485837 45.9106609,10.5617511 L45.9106609,23.1706094 Z" id="Shape"></path>
                    <g id="Group" transform="translate(4.635193, 5.356223)">
                        <path d="M19.3414249,2.12796567 C19.5140601,2.12796567 19.6889614,2.08449785 19.8497511,1.99313305 L19.8602575,1.9872618 C19.8606695,1.98695279 19.8690129,1.9823176 19.8694249,1.98211159 C20.3650815,1.70369099 20.5375107,1.07835193 20.2595021,0.58248927 C19.9812876,0.0865236052 19.3499742,-0.0878626609 18.8540086,0.189630901 L18.8313476,0.202403433 C18.336824,0.48360515 18.1639828,1.11244635 18.4451845,1.60696996 C18.6350215,1.94070386 18.983073,2.12796567 19.3414249,2.12796567 Z" id="Path"></path>
                        <path d="M14.8063519,2.28896137 C10.3616137,4.4088927 5.66781116,6.04696996 0.855450644,7.15735622 C0.388017167,7.26520172 0.0569613734,7.68133906 0.0569613734,8.16103004 L0.0569613734,17.8141803 C0.0569613734,18.9300258 0.132257511,20.0566867 0.280480687,21.1627468 C0.349699571,21.6801373 0.791896996,22.056 1.30001717,22.056 C1.34554506,22.056 1.39169099,22.0530129 1.43814592,22.0467296 C2.00199142,21.9711245 2.39773391,21.4528069 2.32212876,20.8889614 C2.18595708,19.8733391 2.11694421,18.8387639 2.11694421,17.8141803 L2.11694421,8.97548498 C6.79591416,7.83769957 11.3595193,6.21538197 15.6931159,4.14839485 C16.2066953,3.90355365 16.4243433,3.28872103 16.1795021,2.77524464 C15.9344549,2.26176824 15.3195193,2.04422318 14.8063519,2.28896137 Z" id="Path"></path>
                        <path d="M37.6426094,7.13098712 C37.0738197,7.13098712 36.6125665,7.59213734 36.6125665,8.16103004 L36.6125665,17.8141803 C36.6125665,26.9718798 31.2018541,35.3741459 22.8280172,39.2200172 C22.3111416,39.4574421 22.0844292,40.0689785 22.3218541,40.5859571 C22.4954163,40.9636738 22.8686009,41.1863691 23.2585751,41.1863691 C23.4024721,41.1863691 23.5486352,41.1560858 23.687794,41.0921202 C28.103176,39.0642747 31.8510901,35.8179914 34.5267296,31.704206 C37.2390386,27.5339742 38.6726524,22.7308841 38.6726524,17.8141803 L38.6726524,8.16103004 C38.6726524,7.59224034 38.2113991,7.13098712 37.6426094,7.13098712 Z" id="Path"></path>
                        <path d="M19.1398455,40.5490815 L19.1006009,40.559485 C18.5507639,40.7054421 18.2233133,41.2693906 18.3692704,41.8192275 C18.4916395,42.2806867 18.9082918,42.5853734 19.3640858,42.5853734 C19.4515365,42.5853734 19.5405322,42.5742489 19.6290129,42.5506609 L19.6682575,42.5402575 C20.2180944,42.3943004 20.5455451,41.8303519 20.399588,41.280515 C20.2536309,40.7303691 19.6893734,40.4031245 19.1398455,40.5490815 Z" id="Path"></path>
                    </g>
                    <path d="M37.8136996,26.5606867 C38.4840515,25.4711073 38.3158455,24.0832275 37.4044635,23.1855451 L36.3342489,22.1312961 C36.1943691,21.9935794 36.1222661,21.8024034 36.1361717,21.6067983 L36.2433991,20.1007725 C36.3346609,18.8188841 35.5390558,17.664515 34.3086695,17.2934936 L32.8913305,16.8662318 C32.7023176,16.8092704 32.5488412,16.6726867 32.4702489,16.4915021 L31.8770472,15.1228841 C31.3704721,13.9547124 30.095691,13.2851845 28.84697,13.5300258 L27.408824,13.8122575 C27.2144549,13.8503691 27.0139056,13.800927 26.8593991,13.6761888 L25.7148155,12.7520343 C24.721133,11.9499399 23.27897,11.9497339 22.2853906,12.7520343 L21.1406009,13.6762918 C20.9861974,13.80103 20.7856481,13.8503691 20.591176,13.8122575 L19.15303,13.5301288 C17.903794,13.2848755 16.6293219,13.9547124 16.1230558,15.1226781 L15.5294421,16.4917082 C15.4508498,16.6726867 15.2974764,16.8092704 15.1084635,16.8662318 L13.6914335,17.2934936 C12.4610472,17.664412 11.6654421,18.8187811 11.7567039,20.1007725 L11.8639313,21.6066953 C11.8778369,21.8024034 11.8056309,21.9935794 11.6659571,22.1311931 L10.5956395,23.1855451 C9.68425751,24.0833305 9.5159485,25.4712103 10.1864034,26.5606867 L10.9777854,27.8466953 C11.0804807,28.0134592 11.1048927,28.2161717 11.0450472,28.4025064 L10.5818369,29.8426094 C10.1896996,31.0623863 10.6853562,32.3711588 11.7869871,33.0252361 L13.0696996,33.7868498 C13.2389356,33.887382 13.3549185,34.056206 13.3879828,34.2500601 L13.6403433,35.7308498 C13.8570644,37.0019227 14.9078112,37.9344206 16.1956738,37.9983863 L17.664927,38.0714163 C17.8626953,38.0813047 18.0449099,38.1773047 18.1648069,38.3350043 L19.0605322,39.5134764 C19.5879142,40.2074163 20.4077253,40.5885322 21.2429871,40.5885322 C21.6307983,40.5885322 22.0220086,40.5063348 22.3886009,40.3348326 L23.7167382,39.7146438 C23.8967897,39.6305923 24.1032103,39.6306953 24.2832618,39.7146438 L25.6112961,40.3348326 C26.7678283,40.8747811 28.1675536,40.5293047 28.9395708,39.5131674 L29.8349871,38.3349013 C29.9548841,38.1772017 30.1370987,38.0810987 30.334867,38.0713133 L31.8044292,37.9982833 C33.0922918,37.9343176 34.1430386,37.0018197 34.3597597,35.7307468 L34.6121202,34.2500601 C34.6451845,34.056103 34.7611674,33.887279 34.9304034,33.7868498 L36.2131159,33.0252361 C37.3147468,32.3711588 37.8104034,31.0623863 37.4181631,29.8425064 L36.9551588,28.4027124 C36.8952103,28.2161717 36.9196223,28.0135622 37.0222146,27.8467983 L37.8136996,26.5606867 Z M36.0592275,25.4812017 L35.2676395,26.7674163 C34.8494421,27.4473476 34.7496309,28.2732361 34.9939571,29.0334077 L35.4569614,30.4733047 C35.5532704,30.7725322 35.4316223,31.0935966 35.1613391,31.2540773 L33.8786266,32.015691 C33.1889099,32.425133 32.7162232,33.1134077 32.5813906,33.9040687 L32.32903,35.3847554 C32.2757768,35.6964464 32.0180601,35.9252189 31.7022489,35.9408755 L30.2326867,36.0139056 C29.4261631,36.0540773 28.6832961,36.4458026 28.1948498,37.0886524 L27.2994335,38.2670215 C27.1100086,38.5161888 26.7667983,38.6010644 26.4831245,38.4686009 L25.1550901,37.848412 C24.4209785,37.5056137 23.5792275,37.5056137 22.8451159,37.848412 L21.5169785,38.4686009 C21.2330987,38.6009614 20.8899914,38.5160858 20.7006695,38.2670215 L19.8048412,37.0883433 C19.3162918,36.4455966 18.5736309,36.0539742 17.7672103,36.0139056 L16.2979571,35.9408755 C15.9821459,35.9252189 15.7244292,35.6964464 15.671176,35.3847554 L15.4188155,33.9039657 C15.2839828,33.1133047 14.8111931,32.425133 14.1215794,32.015588 L12.838867,31.2539742 C12.5685837,31.0934936 12.4469356,30.7724292 12.5431416,30.4733047 L13.0063519,29.0330987 C13.2505751,28.273133 13.150867,27.4472446 12.7324635,26.7672103 L11.9409785,25.4810987 C11.7765837,25.2139056 11.8178884,24.8734764 12.0414077,24.6532532 L13.1118283,23.5989013 C13.6814421,23.0376309 13.9757253,22.2583004 13.918867,21.4605322 L13.8116395,19.9546094 C13.7892876,19.6401373 13.9843777,19.3569785 14.2861803,19.2660258 L15.7032103,18.8387639 C16.4738884,18.6063863 17.0995365,18.0495451 17.4195708,17.3112103 L18.0131845,15.9422833 C18.120206,15.695485 18.3670043,15.5393305 18.6292532,15.5393305 C18.671382,15.5393305 18.7139227,15.5433476 18.7563605,15.551691 L20.1944034,15.8338197 C20.9888755,15.9898712 21.8051845,15.7876738 22.4347468,15.2791416 L23.5795365,14.3549871 C23.8231416,14.1582489 24.1769614,14.1582489 24.4207725,14.3549871 L25.5653562,15.2791416 C26.1949185,15.7875708 27.0114335,15.9895622 27.8056996,15.8339227 L29.2437425,15.551691 C29.5497682,15.4914335 29.8627983,15.6559313 29.9870215,15.9423863 L30.5802232,17.3110043 C30.9003605,18.0495451 31.5261116,18.6064893 32.2966867,18.8387639 L33.7140258,19.2660258 C34.0157253,19.3569785 34.2109185,19.6402403 34.1885665,19.9546094 L34.0813391,21.4606352 C34.0244807,22.2583004 34.3187639,23.0376309 34.8884807,23.5990043 L35.9587983,24.6533562 C36.1823176,24.8736824 36.2237253,25.2140086 36.0592275,25.4812017 Z" id="Shape"></path>
                    <path d="M31.4138319,21.3300734 C31.1337621,21.0499755 30.6796887,21.0499755 30.3995629,21.3300734 L21.8071322,29.9225881 L18.5043424,26.6197983 C18.2242726,26.3397005 17.7701992,26.3397285 17.4900734,26.6197983 C17.2099755,26.8998681 17.2099755,27.3539415 17.4900734,27.6340393 L21.2999977,31.4439076 C21.5799834,31.7239774 22.034393,31.7237813 22.3142667,31.4439076 L31.4138319,22.3443424 C31.6939297,22.0642726 31.6939017,21.6101712 31.4138319,21.3300734 Z" id="Path"></path>
                </g>
            </g>
        </g>
    </g>
</svg>